<svg width="288" height="166" viewBox="0 0 288 166" fill="none" xmlns="http://www.w3.org/2000/svg">
<circle cx="136" cy="37" r="3" fill="#C4C4C4" fill-opacity="0.4"/>
<circle cx="117" cy="37" r="3" fill="#C4C4C4" fill-opacity="0.4"/>
<circle cx="136" cy="19" r="3" fill="#C4C4C4" fill-opacity="0.4"/>
<circle cx="117" cy="19" r="3" fill="#C4C4C4" fill-opacity="0.4"/>
<circle cx="136" cy="55" r="3" fill="#C4C4C4" fill-opacity="0.4"/>
<circle cx="117" cy="55" r="3" fill="#C4C4C4" fill-opacity="0.4"/>
<circle cx="136" cy="73" r="3" fill="#C4C4C4" fill-opacity="0.4"/>
<circle cx="117" cy="73" r="3" fill="#C4C4C4" fill-opacity="0.4"/>
<circle cx="136" cy="91" r="3" fill="#C4C4C4" fill-opacity="0.4"/>
<circle cx="117" cy="91" r="3" fill="#C4C4C4" fill-opacity="0.4"/>
<circle cx="136" cy="109" r="3" fill="#C4C4C4" fill-opacity="0.4"/>
<circle cx="117" cy="109" r="3" fill="#C4C4C4" fill-opacity="0.4"/>
<circle cx="155" cy="37" r="3" fill="#C4C4C4" fill-opacity="0.4"/>
<circle cx="155" cy="19" r="3" fill="#C4C4C4" fill-opacity="0.4"/>
<circle cx="155" cy="55" r="3" fill="#C4C4C4" fill-opacity="0.4"/>
<circle cx="155" cy="73" r="3" fill="#C4C4C4" fill-opacity="0.4"/>
<circle cx="155" cy="91" r="3" fill="#C4C4C4" fill-opacity="0.4"/>
<circle cx="155" cy="109" r="3" fill="#C4C4C4" fill-opacity="0.4"/>
<circle cx="174" cy="37" r="3" fill="#C4C4C4" fill-opacity="0.4"/>
<circle cx="174" cy="19" r="3" fill="#C4C4C4" fill-opacity="0.4"/>
<circle cx="174" cy="55" r="3" fill="#F1666A" fill-opacity="0.6"/>
<circle cx="174" cy="73" r="3" fill="#F1666A" fill-opacity="0.6"/>
<circle cx="174" cy="91" r="3" fill="#C4C4C4" fill-opacity="0.4"/>
<circle cx="174" cy="109" r="3" fill="#C4C4C4" fill-opacity="0.4"/>
<circle cx="193" cy="37" r="3" fill="#C4C4C4" fill-opacity="0.4"/>
<circle cx="193" cy="19" r="3" fill="#C4C4C4" fill-opacity="0.4"/>
<circle cx="193" cy="55" r="3" fill="#F1666A" fill-opacity="0.6"/>
<circle cx="193" cy="73" r="3" fill="#F1666A" fill-opacity="0.6"/>
<circle cx="193" cy="91" r="3" fill="#C4C4C4" fill-opacity="0.4"/>
<circle cx="193" cy="109" r="3" fill="#C4C4C4" fill-opacity="0.4"/>
<circle cx="212" cy="37" r="3" fill="#C4C4C4" fill-opacity="0.4"/>
<circle cx="212" cy="19" r="3" fill="#C4C4C4" fill-opacity="0.4"/>
<circle cx="212" cy="55" r="3" fill="#F1666A" fill-opacity="0.6"/>
<circle cx="212" cy="73" r="3" fill="#F1666A" fill-opacity="0.6"/>
<circle cx="212" cy="91" r="3" fill="#C4C4C4" fill-opacity="0.4"/>
<circle cx="212" cy="109" r="3" fill="#C4C4C4" fill-opacity="0.4"/>
<circle cx="231" cy="37" r="3" fill="#C4C4C4" fill-opacity="0.4"/>
<circle cx="231" cy="19" r="3" fill="#C4C4C4" fill-opacity="0.4"/>
<circle cx="231" cy="55" r="3" fill="#C4C4C4" fill-opacity="0.4"/>
<circle cx="231" cy="73" r="3" fill="#C4C4C4" fill-opacity="0.4"/>
<circle cx="231" cy="91" r="3" fill="#C4C4C4" fill-opacity="0.4"/>
<circle cx="231" cy="109" r="3" fill="#C4C4C4" fill-opacity="0.4"/>
<circle cx="272" cy="16" r="16" fill="#F1666A" fill-opacity="0.6"/>
<circle cx="250" cy="37" r="3" fill="#C4C4C4" fill-opacity="0.4"/>
<circle cx="269" cy="37" r="3" fill="#C4C4C4" fill-opacity="0.4"/>
<circle cx="250" cy="19" r="3" fill="#C4C4C4" fill-opacity="0.4"/>
<circle cx="269" cy="19" r="3" fill="#C4C4C4" fill-opacity="0.4"/>
<circle cx="250" cy="55" r="3" fill="#C4C4C4" fill-opacity="0.4"/>
<circle cx="269" cy="55" r="3" fill="#C4C4C4" fill-opacity="0.4"/>
<circle cx="250" cy="73" r="3" fill="#C4C4C4" fill-opacity="0.4"/>
<circle cx="269" cy="73" r="3" fill="#C4C4C4" fill-opacity="0.4"/>
<circle cx="250" cy="91" r="3" fill="#C4C4C4" fill-opacity="0.4"/>
<circle cx="269" cy="91" r="3" fill="#C4C4C4" fill-opacity="0.4"/>
<circle cx="250" cy="109" r="3" fill="#C4C4C4" fill-opacity="0.4"/>
<circle cx="269" cy="109" r="3" fill="#C4C4C4" fill-opacity="0.4"/>
<circle cx="22" cy="91" r="3" fill="#C4C4C4" fill-opacity="0.4"/>
<circle cx="3" cy="91" r="3" fill="#C4C4C4" fill-opacity="0.4"/>
<circle cx="22" cy="73" r="3" fill="#C4C4C4" fill-opacity="0.4"/>
<circle cx="3" cy="73" r="3" fill="#C4C4C4" fill-opacity="0.4"/>
<circle cx="22" cy="109" r="3" fill="#C4C4C4" fill-opacity="0.4"/>
<circle cx="3" cy="109" r="3" fill="#C4C4C4" fill-opacity="0.4"/>
<circle cx="22" cy="127" r="3" fill="#C4C4C4" fill-opacity="0.4"/>
<circle cx="3" cy="127" r="3" fill="#C4C4C4" fill-opacity="0.4"/>
<circle cx="22" cy="145" r="3" fill="#C4C4C4" fill-opacity="0.4"/>
<circle cx="3" cy="145" r="3" fill="#C4C4C4" fill-opacity="0.4"/>
<circle cx="22" cy="163" r="3" fill="#C4C4C4" fill-opacity="0.4"/>
<circle cx="3" cy="163" r="3" fill="#C4C4C4" fill-opacity="0.4"/>
<circle cx="41" cy="91" r="3" fill="#C4C4C4" fill-opacity="0.4"/>
<circle cx="41" cy="73" r="3" fill="#C4C4C4" fill-opacity="0.4"/>
<circle cx="41" cy="109" r="3" fill="#C4C4C4" fill-opacity="0.4"/>
<circle cx="41" cy="127" r="3" fill="#C4C4C4" fill-opacity="0.4"/>
<circle cx="41" cy="145" r="3" fill="#C4C4C4" fill-opacity="0.4"/>
<circle cx="41" cy="163" r="3" fill="#C4C4C4" fill-opacity="0.4"/>
<circle cx="60" cy="91" r="3" fill="#C4C4C4" fill-opacity="0.4"/>
<circle cx="60" cy="73" r="3" fill="#C4C4C4" fill-opacity="0.4"/>
<circle cx="60" cy="109" r="3" fill="#4E4E4E"/>
<circle cx="60" cy="127" r="3" fill="#4E4E4E"/>
<circle cx="60" cy="145" r="3" fill="#C4C4C4" fill-opacity="0.4"/>
<circle cx="60" cy="163" r="3" fill="#C4C4C4" fill-opacity="0.4"/>
<circle cx="79" cy="91" r="3" fill="#C4C4C4" fill-opacity="0.4"/>
<circle cx="79" cy="73" r="3" fill="#C4C4C4" fill-opacity="0.4"/>
<circle cx="79" cy="109" r="3" fill="#4E4E4E"/>
<circle cx="79" cy="127" r="3" fill="#4E4E4E"/>
<circle cx="79" cy="145" r="3" fill="#C4C4C4" fill-opacity="0.4"/>
<circle cx="79" cy="163" r="3" fill="#C4C4C4" fill-opacity="0.4"/>
<circle cx="98" cy="91" r="3" fill="#C4C4C4" fill-opacity="0.4"/>
<circle cx="98" cy="73" r="3" fill="#C4C4C4" fill-opacity="0.4"/>
<circle cx="98" cy="109" r="3" fill="#4E4E4E"/>
<circle cx="98" cy="127" r="3" fill="#4E4E4E"/>
<circle cx="98" cy="145" r="3" fill="#C4C4C4" fill-opacity="0.4"/>
<circle cx="98" cy="163" r="3" fill="#C4C4C4" fill-opacity="0.4"/>
<circle cx="117" cy="127" r="3" fill="#C4C4C4" fill-opacity="0.4"/>
<circle cx="117" cy="145" r="3" fill="#C4C4C4" fill-opacity="0.4"/>
<circle cx="117" cy="163" r="3" fill="#C4C4C4" fill-opacity="0.4"/>
<circle cx="136" cy="127" r="3" fill="#C4C4C4" fill-opacity="0.4"/>
<circle cx="155" cy="127" r="3" fill="#C4C4C4" fill-opacity="0.4"/>
<circle cx="136" cy="145" r="3" fill="#C4C4C4" fill-opacity="0.4"/>
<circle cx="155" cy="145" r="3" fill="#C4C4C4" fill-opacity="0.4"/>
<circle cx="136" cy="163" r="3" fill="#C4C4C4" fill-opacity="0.4"/>
<circle cx="155" cy="163" r="3" fill="#C4C4C4" fill-opacity="0.4"/>
</svg>
