<svg width="174" height="112" viewBox="0 0 174 112" fill="none" xmlns="http://www.w3.org/2000/svg">
<circle cx="22" cy="37" r="3" fill="#C4C4C4" fill-opacity="0.4"/>
<circle cx="3" cy="37" r="3" fill="#C4C4C4" fill-opacity="0.4"/>
<circle cx="22" cy="19" r="3" fill="#C4C4C4" fill-opacity="0.4"/>
<circle cx="3" cy="19" r="3" fill="#C4C4C4" fill-opacity="0.4"/>
<circle cx="22" cy="55" r="3" fill="#C4C4C4" fill-opacity="0.4"/>
<circle cx="3" cy="55" r="3" fill="#C4C4C4" fill-opacity="0.4"/>
<circle cx="22" cy="73" r="3" fill="#C4C4C4" fill-opacity="0.4"/>
<circle cx="3" cy="73" r="3" fill="#C4C4C4" fill-opacity="0.4"/>
<circle cx="22" cy="91" r="3" fill="#C4C4C4" fill-opacity="0.4"/>
<circle cx="3" cy="91" r="3" fill="#C4C4C4" fill-opacity="0.4"/>
<circle cx="22" cy="109" r="3" fill="#C4C4C4" fill-opacity="0.4"/>
<circle cx="3" cy="109" r="3" fill="#C4C4C4" fill-opacity="0.4"/>
<circle cx="41" cy="37" r="3" fill="#C4C4C4" fill-opacity="0.4"/>
<circle cx="41" cy="19" r="3" fill="#C4C4C4" fill-opacity="0.4"/>
<circle cx="41" cy="55" r="3" fill="#C4C4C4" fill-opacity="0.4"/>
<circle cx="41" cy="73" r="3" fill="#C4C4C4" fill-opacity="0.4"/>
<circle cx="41" cy="91" r="3" fill="#C4C4C4" fill-opacity="0.4"/>
<circle cx="41" cy="109" r="3" fill="#C4C4C4" fill-opacity="0.4"/>
<circle cx="60" cy="37" r="3" fill="#C4C4C4" fill-opacity="0.4"/>
<circle cx="60" cy="19" r="3" fill="#C4C4C4" fill-opacity="0.4"/>
<circle cx="60" cy="55" r="3" fill="#F1666A" fill-opacity="0.4"/>
<circle cx="60" cy="73" r="3" fill="#F1666A" fill-opacity="0.4"/>
<circle cx="60" cy="91" r="3" fill="#C4C4C4" fill-opacity="0.4"/>
<circle cx="60" cy="109" r="3" fill="#C4C4C4" fill-opacity="0.4"/>
<circle cx="79" cy="37" r="3" fill="#C4C4C4" fill-opacity="0.4"/>
<circle cx="79" cy="19" r="3" fill="#C4C4C4" fill-opacity="0.4"/>
<circle cx="79" cy="55" r="3" fill="#F1666A" fill-opacity="0.4"/>
<circle cx="79" cy="73" r="3" fill="#F1666A" fill-opacity="0.4"/>
<circle cx="79" cy="91" r="3" fill="#C4C4C4" fill-opacity="0.4"/>
<circle cx="79" cy="109" r="3" fill="#C4C4C4" fill-opacity="0.4"/>
<circle cx="98" cy="37" r="3" fill="#C4C4C4" fill-opacity="0.4"/>
<circle cx="98" cy="19" r="3" fill="#C4C4C4" fill-opacity="0.4"/>
<circle cx="98" cy="55" r="3" fill="#F1666A" fill-opacity="0.4"/>
<circle cx="98" cy="73" r="3" fill="#F1666A" fill-opacity="0.4"/>
<circle cx="98" cy="91" r="3" fill="#C4C4C4" fill-opacity="0.4"/>
<circle cx="98" cy="109" r="3" fill="#C4C4C4" fill-opacity="0.4"/>
<circle cx="117" cy="37" r="3" fill="#C4C4C4" fill-opacity="0.4"/>
<circle cx="117" cy="19" r="3" fill="#C4C4C4" fill-opacity="0.4"/>
<circle cx="117" cy="55" r="3" fill="#C4C4C4" fill-opacity="0.4"/>
<circle cx="117" cy="73" r="3" fill="#C4C4C4" fill-opacity="0.4"/>
<circle cx="117" cy="91" r="3" fill="#C4C4C4" fill-opacity="0.4"/>
<circle cx="117" cy="109" r="3" fill="#C4C4C4" fill-opacity="0.4"/>
<circle cx="158" cy="16" r="16" fill="#F1666A" fill-opacity="0.4"/>
<circle cx="136" cy="37" r="3" fill="#C4C4C4" fill-opacity="0.4"/>
<circle cx="155" cy="37" r="3" fill="#C4C4C4" fill-opacity="0.4"/>
<circle cx="136" cy="19" r="3" fill="#C4C4C4" fill-opacity="0.4"/>
<circle cx="155" cy="19" r="3" fill="#C4C4C4" fill-opacity="0.4"/>
<circle cx="136" cy="55" r="3" fill="#C4C4C4" fill-opacity="0.4"/>
<circle cx="155" cy="55" r="3" fill="#C4C4C4" fill-opacity="0.4"/>
<circle cx="136" cy="73" r="3" fill="#C4C4C4" fill-opacity="0.4"/>
<circle cx="155" cy="73" r="3" fill="#C4C4C4" fill-opacity="0.4"/>
<circle cx="136" cy="91" r="3" fill="#C4C4C4" fill-opacity="0.4"/>
<circle cx="155" cy="91" r="3" fill="#C4C4C4" fill-opacity="0.4"/>
<circle cx="136" cy="109" r="3" fill="#C4C4C4" fill-opacity="0.4"/>
<circle cx="155" cy="109" r="3" fill="#C4C4C4" fill-opacity="0.4"/>
</svg>
